<mxfile host="app.diagrams.net" modified="2020-12-14T12:47:49.022Z" agent="5.0 (Windows NT 10.0; Win64; x64) AppleWebKit/537.36 (KHTML, like Gecko) Chrome/86.0.4240.198 Safari/537.36 OPR/72.0.3815.400" etag="MYHpVGfqDnVPG5EEloJ4" version="14.0.1" type="github">
  <diagram id="TSJOTE-9jYVLGcTTON4N" name="Page-1">
    <mxGraphModel dx="828" dy="490" grid="1" gridSize="10" guides="1" tooltips="1" connect="1" arrows="1" fold="1" page="1" pageScale="1" pageWidth="827" pageHeight="1169" math="0" shadow="0">
      <root>
        <mxCell id="0" />
        <mxCell id="1" parent="0" />
        <mxCell id="yA4khDFc_51iNREQwirL-1" value="" style="edgeStyle=orthogonalEdgeStyle;rounded=0;orthogonalLoop=1;jettySize=auto;html=1;" edge="1" parent="1" source="yA4khDFc_51iNREQwirL-2" target="yA4khDFc_51iNREQwirL-5">
          <mxGeometry relative="1" as="geometry" />
        </mxCell>
        <mxCell id="yA4khDFc_51iNREQwirL-2" value="hf" style="ellipse;fillColor=#000000;strokeColor=none;" vertex="1" parent="1">
          <mxGeometry x="240" y="90" width="30" height="30" as="geometry" />
        </mxCell>
        <mxCell id="yA4khDFc_51iNREQwirL-3" value="Реєстрація" style="text;html=1;strokeColor=none;fillColor=none;align=center;verticalAlign=middle;whiteSpace=wrap;rounded=0;" vertex="1" parent="1">
          <mxGeometry x="235" y="70" width="40" height="20" as="geometry" />
        </mxCell>
        <mxCell id="yA4khDFc_51iNREQwirL-4" value="" style="edgeStyle=orthogonalEdgeStyle;rounded=0;orthogonalLoop=1;jettySize=auto;html=1;" edge="1" parent="1" source="yA4khDFc_51iNREQwirL-5" target="yA4khDFc_51iNREQwirL-12">
          <mxGeometry relative="1" as="geometry" />
        </mxCell>
        <mxCell id="yA4khDFc_51iNREQwirL-5" value="Форма реєстрації" style="rounded=1;whiteSpace=wrap;html=1;shadow=0;comic=0;labelBackgroundColor=none;strokeWidth=1;fontFamily=Verdana;fontSize=12;align=center;arcSize=50;" vertex="1" parent="1">
          <mxGeometry x="204.99999999999994" y="160" width="100" height="40" as="geometry" />
        </mxCell>
        <mxCell id="yA4khDFc_51iNREQwirL-6" style="edgeStyle=orthogonalEdgeStyle;rounded=0;orthogonalLoop=1;jettySize=auto;html=1;entryX=0.643;entryY=0.286;entryDx=0;entryDy=0;entryPerimeter=0;" edge="1" parent="1" source="yA4khDFc_51iNREQwirL-7" target="yA4khDFc_51iNREQwirL-20">
          <mxGeometry relative="1" as="geometry">
            <Array as="points">
              <mxPoint x="310" y="400" />
              <mxPoint x="276" y="400" />
            </Array>
          </mxGeometry>
        </mxCell>
        <mxCell id="yA4khDFc_51iNREQwirL-7" value="Введення паролю" style="rounded=1;whiteSpace=wrap;html=1;shadow=0;comic=0;labelBackgroundColor=none;strokeWidth=1;fontFamily=Verdana;fontSize=12;align=center;arcSize=50;" vertex="1" parent="1">
          <mxGeometry x="259.99999999999994" y="330" width="100" height="40" as="geometry" />
        </mxCell>
        <mxCell id="yA4khDFc_51iNREQwirL-8" value="" style="edgeStyle=orthogonalEdgeStyle;rounded=0;orthogonalLoop=1;jettySize=auto;html=1;" edge="1" parent="1" source="yA4khDFc_51iNREQwirL-12" target="yA4khDFc_51iNREQwirL-7">
          <mxGeometry relative="1" as="geometry">
            <Array as="points">
              <mxPoint x="280" y="300" />
              <mxPoint x="310" y="300" />
            </Array>
          </mxGeometry>
        </mxCell>
        <mxCell id="yA4khDFc_51iNREQwirL-9" style="edgeStyle=orthogonalEdgeStyle;rounded=0;orthogonalLoop=1;jettySize=auto;html=1;entryX=0.5;entryY=0;entryDx=0;entryDy=0;" edge="1" parent="1" source="yA4khDFc_51iNREQwirL-12" target="yA4khDFc_51iNREQwirL-16">
          <mxGeometry relative="1" as="geometry">
            <Array as="points">
              <mxPoint x="320" y="289" />
              <mxPoint x="424" y="289" />
            </Array>
          </mxGeometry>
        </mxCell>
        <mxCell id="yA4khDFc_51iNREQwirL-10" style="edgeStyle=orthogonalEdgeStyle;rounded=0;orthogonalLoop=1;jettySize=auto;html=1;" edge="1" parent="1" source="yA4khDFc_51iNREQwirL-12" target="yA4khDFc_51iNREQwirL-14">
          <mxGeometry relative="1" as="geometry">
            <Array as="points">
              <mxPoint x="190" y="290" />
              <mxPoint x="100" y="290" />
            </Array>
          </mxGeometry>
        </mxCell>
        <mxCell id="yA4khDFc_51iNREQwirL-11" value="" style="edgeStyle=orthogonalEdgeStyle;rounded=0;orthogonalLoop=1;jettySize=auto;html=1;" edge="1" parent="1" source="yA4khDFc_51iNREQwirL-12" target="yA4khDFc_51iNREQwirL-18">
          <mxGeometry relative="1" as="geometry">
            <Array as="points">
              <mxPoint x="230" y="300" />
              <mxPoint x="200" y="300" />
            </Array>
          </mxGeometry>
        </mxCell>
        <mxCell id="yA4khDFc_51iNREQwirL-12" value="" style="whiteSpace=wrap;html=1;rounded=0;shadow=0;comic=0;labelBackgroundColor=none;strokeWidth=1;fillColor=#000000;fontFamily=Verdana;fontSize=12;align=center;rotation=0;" vertex="1" parent="1">
          <mxGeometry x="181.5" y="240" width="147" height="7" as="geometry" />
        </mxCell>
        <mxCell id="yA4khDFc_51iNREQwirL-13" style="edgeStyle=orthogonalEdgeStyle;rounded=0;orthogonalLoop=1;jettySize=auto;html=1;entryX=0.153;entryY=0.143;entryDx=0;entryDy=0;entryPerimeter=0;" edge="1" parent="1" source="yA4khDFc_51iNREQwirL-14" target="yA4khDFc_51iNREQwirL-20">
          <mxGeometry relative="1" as="geometry">
            <Array as="points">
              <mxPoint x="90" y="420" />
              <mxPoint x="204" y="420" />
            </Array>
          </mxGeometry>
        </mxCell>
        <mxCell id="yA4khDFc_51iNREQwirL-14" value="Введення електронної пошти" style="rounded=1;whiteSpace=wrap;html=1;shadow=0;comic=0;labelBackgroundColor=none;strokeWidth=1;fontFamily=Verdana;fontSize=12;align=center;arcSize=50;" vertex="1" parent="1">
          <mxGeometry x="39.99999999999994" y="330" width="100" height="40" as="geometry" />
        </mxCell>
        <mxCell id="yA4khDFc_51iNREQwirL-15" style="edgeStyle=orthogonalEdgeStyle;rounded=0;orthogonalLoop=1;jettySize=auto;html=1;entryX=0.813;entryY=0;entryDx=0;entryDy=0;entryPerimeter=0;" edge="1" parent="1" source="yA4khDFc_51iNREQwirL-16" target="yA4khDFc_51iNREQwirL-20">
          <mxGeometry relative="1" as="geometry">
            <mxPoint x="302" y="438" as="targetPoint" />
            <Array as="points">
              <mxPoint x="424" y="420" />
              <mxPoint x="302" y="420" />
            </Array>
          </mxGeometry>
        </mxCell>
        <mxCell id="yA4khDFc_51iNREQwirL-16" value="Вибір ролі" style="rounded=1;whiteSpace=wrap;html=1;shadow=0;comic=0;labelBackgroundColor=none;strokeWidth=1;fontFamily=Verdana;fontSize=12;align=center;arcSize=50;" vertex="1" parent="1">
          <mxGeometry x="373.49999999999994" y="330" width="100" height="40" as="geometry" />
        </mxCell>
        <mxCell id="yA4khDFc_51iNREQwirL-17" style="edgeStyle=orthogonalEdgeStyle;rounded=0;orthogonalLoop=1;jettySize=auto;html=1;entryX=0.405;entryY=0;entryDx=0;entryDy=0;entryPerimeter=0;" edge="1" parent="1" source="yA4khDFc_51iNREQwirL-18" target="yA4khDFc_51iNREQwirL-20">
          <mxGeometry relative="1" as="geometry">
            <Array as="points">
              <mxPoint x="200" y="400" />
              <mxPoint x="242" y="400" />
            </Array>
          </mxGeometry>
        </mxCell>
        <mxCell id="yA4khDFc_51iNREQwirL-18" value="Введення нікнейму" style="rounded=1;whiteSpace=wrap;html=1;shadow=0;comic=0;labelBackgroundColor=none;strokeWidth=1;fontFamily=Verdana;fontSize=12;align=center;arcSize=50;" vertex="1" parent="1">
          <mxGeometry x="149.99999999999994" y="330" width="100" height="40" as="geometry" />
        </mxCell>
        <mxCell id="yA4khDFc_51iNREQwirL-144" style="edgeStyle=orthogonalEdgeStyle;rounded=0;orthogonalLoop=1;jettySize=auto;html=1;entryX=0.5;entryY=0;entryDx=0;entryDy=0;" edge="1" parent="1" source="yA4khDFc_51iNREQwirL-20" target="yA4khDFc_51iNREQwirL-143">
          <mxGeometry relative="1" as="geometry" />
        </mxCell>
        <mxCell id="yA4khDFc_51iNREQwirL-20" value="" style="whiteSpace=wrap;html=1;rounded=0;shadow=0;comic=0;labelBackgroundColor=none;strokeWidth=1;fillColor=#000000;fontFamily=Verdana;fontSize=12;align=center;rotation=0;" vertex="1" parent="1">
          <mxGeometry x="181.5" y="440" width="147" height="7" as="geometry" />
        </mxCell>
        <mxCell id="yA4khDFc_51iNREQwirL-21" style="edgeStyle=orthogonalEdgeStyle;rounded=0;orthogonalLoop=1;jettySize=auto;html=1;" edge="1" parent="1" source="yA4khDFc_51iNREQwirL-23">
          <mxGeometry relative="1" as="geometry">
            <mxPoint x="255" y="130" as="targetPoint" />
            <Array as="points">
              <mxPoint x="20" y="650" />
              <mxPoint x="20" y="130" />
            </Array>
          </mxGeometry>
        </mxCell>
        <mxCell id="yA4khDFc_51iNREQwirL-22" style="edgeStyle=orthogonalEdgeStyle;rounded=0;orthogonalLoop=1;jettySize=auto;html=1;entryX=0.5;entryY=0;entryDx=0;entryDy=0;" edge="1" parent="1" source="yA4khDFc_51iNREQwirL-23" target="yA4khDFc_51iNREQwirL-26">
          <mxGeometry relative="1" as="geometry" />
        </mxCell>
        <mxCell id="yA4khDFc_51iNREQwirL-23" value="Дані коректні?" style="rhombus;" vertex="1" parent="1">
          <mxGeometry x="202.5" y="615" width="105" height="70" as="geometry" />
        </mxCell>
        <mxCell id="yA4khDFc_51iNREQwirL-24" value="Ні" style="text;html=1;strokeColor=none;fillColor=none;align=center;verticalAlign=middle;whiteSpace=wrap;rounded=0;" vertex="1" parent="1">
          <mxGeometry x="145.5" y="629" width="40" height="20" as="geometry" />
        </mxCell>
        <mxCell id="yA4khDFc_51iNREQwirL-25" style="edgeStyle=orthogonalEdgeStyle;rounded=0;orthogonalLoop=1;jettySize=auto;html=1;entryX=0.5;entryY=0;entryDx=0;entryDy=0;" edge="1" parent="1" source="yA4khDFc_51iNREQwirL-26" target="yA4khDFc_51iNREQwirL-27">
          <mxGeometry relative="1" as="geometry" />
        </mxCell>
        <mxCell id="yA4khDFc_51iNREQwirL-26" value="Сповіщення про успішну реєстрацію" style="rounded=1;whiteSpace=wrap;html=1;shadow=0;comic=0;labelBackgroundColor=none;strokeWidth=1;fontFamily=Verdana;fontSize=12;align=center;arcSize=50;" vertex="1" parent="1">
          <mxGeometry x="204.99999999999994" y="735" width="100" height="40" as="geometry" />
        </mxCell>
        <mxCell id="yA4khDFc_51iNREQwirL-27" value="" style="ellipse;html=1;shape=endState;fillColor=#000000;strokeColor=#000000;" vertex="1" parent="1">
          <mxGeometry x="240" y="815" width="30" height="30" as="geometry" />
        </mxCell>
        <mxCell id="yA4khDFc_51iNREQwirL-28" style="edgeStyle=orthogonalEdgeStyle;rounded=0;orthogonalLoop=1;jettySize=auto;html=1;entryX=0.5;entryY=0;entryDx=0;entryDy=0;" edge="1" parent="1" source="yA4khDFc_51iNREQwirL-29" target="yA4khDFc_51iNREQwirL-32">
          <mxGeometry relative="1" as="geometry" />
        </mxCell>
        <mxCell id="yA4khDFc_51iNREQwirL-29" value="" style="ellipse;fillColor=#000000;strokeColor=none;" vertex="1" parent="1">
          <mxGeometry x="640" y="90" width="30" height="30" as="geometry" />
        </mxCell>
        <mxCell id="yA4khDFc_51iNREQwirL-30" value="Вхід" style="text;html=1;strokeColor=none;fillColor=none;align=center;verticalAlign=middle;whiteSpace=wrap;rounded=0;" vertex="1" parent="1">
          <mxGeometry x="635" y="70" width="40" height="20" as="geometry" />
        </mxCell>
        <mxCell id="yA4khDFc_51iNREQwirL-31" style="edgeStyle=orthogonalEdgeStyle;rounded=0;orthogonalLoop=1;jettySize=auto;html=1;entryX=0.5;entryY=0;entryDx=0;entryDy=0;" edge="1" parent="1" source="yA4khDFc_51iNREQwirL-32" target="yA4khDFc_51iNREQwirL-35">
          <mxGeometry relative="1" as="geometry" />
        </mxCell>
        <mxCell id="yA4khDFc_51iNREQwirL-32" value="Форма входу" style="rounded=1;whiteSpace=wrap;html=1;shadow=0;comic=0;labelBackgroundColor=none;strokeWidth=1;fontFamily=Verdana;fontSize=12;align=center;arcSize=50;" vertex="1" parent="1">
          <mxGeometry x="605" y="160" width="100" height="40" as="geometry" />
        </mxCell>
        <mxCell id="yA4khDFc_51iNREQwirL-33" style="edgeStyle=orthogonalEdgeStyle;rounded=0;orthogonalLoop=1;jettySize=auto;html=1;entryX=0.5;entryY=0;entryDx=0;entryDy=0;" edge="1" parent="1" source="yA4khDFc_51iNREQwirL-35" target="yA4khDFc_51iNREQwirL-37">
          <mxGeometry relative="1" as="geometry">
            <Array as="points">
              <mxPoint x="640" y="284" />
              <mxPoint x="590" y="284" />
            </Array>
          </mxGeometry>
        </mxCell>
        <mxCell id="yA4khDFc_51iNREQwirL-34" style="edgeStyle=orthogonalEdgeStyle;rounded=0;orthogonalLoop=1;jettySize=auto;html=1;entryX=0.5;entryY=0;entryDx=0;entryDy=0;" edge="1" parent="1" source="yA4khDFc_51iNREQwirL-35" target="yA4khDFc_51iNREQwirL-39">
          <mxGeometry relative="1" as="geometry">
            <Array as="points">
              <mxPoint x="670" y="284" />
              <mxPoint x="720" y="284" />
            </Array>
          </mxGeometry>
        </mxCell>
        <mxCell id="yA4khDFc_51iNREQwirL-35" value="" style="whiteSpace=wrap;html=1;rounded=0;shadow=0;comic=0;labelBackgroundColor=none;strokeWidth=1;fillColor=#000000;fontFamily=Verdana;fontSize=12;align=center;rotation=0;" vertex="1" parent="1">
          <mxGeometry x="581.5" y="240" width="147" height="7" as="geometry" />
        </mxCell>
        <mxCell id="yA4khDFc_51iNREQwirL-36" style="edgeStyle=orthogonalEdgeStyle;rounded=0;orthogonalLoop=1;jettySize=auto;html=1;entryX=0.25;entryY=0;entryDx=0;entryDy=0;" edge="1" parent="1" source="yA4khDFc_51iNREQwirL-37" target="yA4khDFc_51iNREQwirL-41">
          <mxGeometry relative="1" as="geometry" />
        </mxCell>
        <mxCell id="yA4khDFc_51iNREQwirL-37" value="Введення електронної пошти" style="rounded=1;whiteSpace=wrap;html=1;shadow=0;comic=0;labelBackgroundColor=none;strokeWidth=1;fontFamily=Verdana;fontSize=12;align=center;arcSize=50;" vertex="1" parent="1">
          <mxGeometry x="540" y="320" width="100" height="40" as="geometry" />
        </mxCell>
        <mxCell id="yA4khDFc_51iNREQwirL-38" style="edgeStyle=orthogonalEdgeStyle;rounded=0;orthogonalLoop=1;jettySize=auto;html=1;entryX=0.75;entryY=0;entryDx=0;entryDy=0;" edge="1" parent="1" source="yA4khDFc_51iNREQwirL-39" target="yA4khDFc_51iNREQwirL-41">
          <mxGeometry relative="1" as="geometry" />
        </mxCell>
        <mxCell id="yA4khDFc_51iNREQwirL-39" value="Введення паролю" style="rounded=1;whiteSpace=wrap;html=1;shadow=0;comic=0;labelBackgroundColor=none;strokeWidth=1;fontFamily=Verdana;fontSize=12;align=center;arcSize=50;" vertex="1" parent="1">
          <mxGeometry x="670" y="320" width="100" height="40" as="geometry" />
        </mxCell>
        <mxCell id="yA4khDFc_51iNREQwirL-147" style="edgeStyle=orthogonalEdgeStyle;rounded=0;orthogonalLoop=1;jettySize=auto;html=1;entryX=0.5;entryY=0;entryDx=0;entryDy=0;" edge="1" parent="1" source="yA4khDFc_51iNREQwirL-41" target="yA4khDFc_51iNREQwirL-146">
          <mxGeometry relative="1" as="geometry" />
        </mxCell>
        <mxCell id="yA4khDFc_51iNREQwirL-41" value="" style="whiteSpace=wrap;html=1;rounded=0;shadow=0;comic=0;labelBackgroundColor=none;strokeWidth=1;fillColor=#000000;fontFamily=Verdana;fontSize=12;align=center;rotation=0;" vertex="1" parent="1">
          <mxGeometry x="581.5" y="420" width="147" height="7" as="geometry" />
        </mxCell>
        <mxCell id="yA4khDFc_51iNREQwirL-42" style="edgeStyle=orthogonalEdgeStyle;rounded=0;orthogonalLoop=1;jettySize=auto;html=1;" edge="1" parent="1" source="yA4khDFc_51iNREQwirL-44">
          <mxGeometry relative="1" as="geometry">
            <mxPoint x="655" y="130" as="targetPoint" />
            <Array as="points">
              <mxPoint x="520" y="635" />
              <mxPoint x="520" y="130" />
            </Array>
          </mxGeometry>
        </mxCell>
        <mxCell id="yA4khDFc_51iNREQwirL-43" style="edgeStyle=orthogonalEdgeStyle;rounded=0;orthogonalLoop=1;jettySize=auto;html=1;entryX=0.5;entryY=0;entryDx=0;entryDy=0;" edge="1" parent="1" source="yA4khDFc_51iNREQwirL-44" target="yA4khDFc_51iNREQwirL-48">
          <mxGeometry relative="1" as="geometry" />
        </mxCell>
        <mxCell id="yA4khDFc_51iNREQwirL-44" value="Дані коректні?" style="rhombus;" vertex="1" parent="1">
          <mxGeometry x="602.5" y="600" width="105" height="70" as="geometry" />
        </mxCell>
        <mxCell id="yA4khDFc_51iNREQwirL-45" value="Ні" style="text;html=1;strokeColor=none;fillColor=none;align=center;verticalAlign=middle;whiteSpace=wrap;rounded=0;" vertex="1" parent="1">
          <mxGeometry x="551" y="615" width="40" height="20" as="geometry" />
        </mxCell>
        <mxCell id="yA4khDFc_51iNREQwirL-46" value="Так" style="text;html=1;strokeColor=none;fillColor=none;align=center;verticalAlign=middle;whiteSpace=wrap;rounded=0;" vertex="1" parent="1">
          <mxGeometry x="251" y="699.5" width="40" height="20" as="geometry" />
        </mxCell>
        <mxCell id="yA4khDFc_51iNREQwirL-47" style="edgeStyle=orthogonalEdgeStyle;rounded=0;orthogonalLoop=1;jettySize=auto;html=1;entryX=0.5;entryY=0;entryDx=0;entryDy=0;" edge="1" parent="1" source="yA4khDFc_51iNREQwirL-48" target="yA4khDFc_51iNREQwirL-50">
          <mxGeometry relative="1" as="geometry" />
        </mxCell>
        <mxCell id="yA4khDFc_51iNREQwirL-48" value="Вхід у систему" style="rounded=1;whiteSpace=wrap;html=1;shadow=0;comic=0;labelBackgroundColor=none;strokeWidth=1;fontFamily=Verdana;fontSize=12;align=center;arcSize=50;" vertex="1" parent="1">
          <mxGeometry x="605" y="719.5" width="100" height="40" as="geometry" />
        </mxCell>
        <mxCell id="yA4khDFc_51iNREQwirL-49" value="Так" style="text;html=1;strokeColor=none;fillColor=none;align=center;verticalAlign=middle;whiteSpace=wrap;rounded=0;" vertex="1" parent="1">
          <mxGeometry x="651" y="685" width="40" height="20" as="geometry" />
        </mxCell>
        <mxCell id="yA4khDFc_51iNREQwirL-50" value="" style="ellipse;html=1;shape=endState;fillColor=#000000;strokeColor=#000000;" vertex="1" parent="1">
          <mxGeometry x="640" y="800" width="30" height="30" as="geometry" />
        </mxCell>
        <mxCell id="yA4khDFc_51iNREQwirL-51" style="edgeStyle=orthogonalEdgeStyle;rounded=0;orthogonalLoop=1;jettySize=auto;html=1;entryX=0.5;entryY=0;entryDx=0;entryDy=0;" edge="1" parent="1" source="yA4khDFc_51iNREQwirL-52" target="yA4khDFc_51iNREQwirL-55">
          <mxGeometry relative="1" as="geometry" />
        </mxCell>
        <mxCell id="yA4khDFc_51iNREQwirL-52" value="hf" style="ellipse;fillColor=#000000;strokeColor=none;" vertex="1" parent="1">
          <mxGeometry x="208.5" y="920" width="30" height="30" as="geometry" />
        </mxCell>
        <mxCell id="yA4khDFc_51iNREQwirL-53" value="Перевірка на наявність землетрусу" style="text;html=1;strokeColor=none;fillColor=none;align=center;verticalAlign=middle;whiteSpace=wrap;rounded=0;" vertex="1" parent="1">
          <mxGeometry x="164.75" y="890" width="117.5" height="20" as="geometry" />
        </mxCell>
        <mxCell id="yA4khDFc_51iNREQwirL-54" style="edgeStyle=orthogonalEdgeStyle;rounded=0;orthogonalLoop=1;jettySize=auto;html=1;entryX=0.5;entryY=0;entryDx=0;entryDy=0;" edge="1" parent="1" source="yA4khDFc_51iNREQwirL-55">
          <mxGeometry relative="1" as="geometry">
            <mxPoint x="223.5" y="1080" as="targetPoint" />
          </mxGeometry>
        </mxCell>
        <mxCell id="yA4khDFc_51iNREQwirL-55" value="Запит до бази даних" style="rounded=1;whiteSpace=wrap;html=1;shadow=0;comic=0;labelBackgroundColor=none;strokeWidth=1;fontFamily=Verdana;fontSize=12;align=center;arcSize=50;" vertex="1" parent="1">
          <mxGeometry x="173.49999999999994" y="990" width="100" height="40" as="geometry" />
        </mxCell>
        <mxCell id="yA4khDFc_51iNREQwirL-56" style="edgeStyle=orthogonalEdgeStyle;rounded=0;orthogonalLoop=1;jettySize=auto;html=1;entryX=0.5;entryY=0;entryDx=0;entryDy=0;" edge="1" parent="1" source="yA4khDFc_51iNREQwirL-58" target="yA4khDFc_51iNREQwirL-60">
          <mxGeometry relative="1" as="geometry" />
        </mxCell>
        <mxCell id="yA4khDFc_51iNREQwirL-57" style="edgeStyle=orthogonalEdgeStyle;rounded=0;orthogonalLoop=1;jettySize=auto;html=1;exitX=0;exitY=0.5;exitDx=0;exitDy=0;" edge="1" parent="1" source="yA4khDFc_51iNREQwirL-58">
          <mxGeometry relative="1" as="geometry">
            <mxPoint x="223.5" y="1250" as="targetPoint" />
            <Array as="points">
              <mxPoint x="143.5" y="1115" />
              <mxPoint x="143.5" y="1250" />
            </Array>
          </mxGeometry>
        </mxCell>
        <mxCell id="yA4khDFc_51iNREQwirL-58" value="Землетрус&#xa;виявлено?" style="rhombus;" vertex="1" parent="1">
          <mxGeometry x="171" y="1080" width="105" height="70" as="geometry" />
        </mxCell>
        <mxCell id="yA4khDFc_51iNREQwirL-59" style="edgeStyle=orthogonalEdgeStyle;rounded=0;orthogonalLoop=1;jettySize=auto;html=1;entryX=0.5;entryY=0;entryDx=0;entryDy=0;" edge="1" parent="1" source="yA4khDFc_51iNREQwirL-60">
          <mxGeometry relative="1" as="geometry">
            <mxPoint x="223.5" y="1280" as="targetPoint" />
          </mxGeometry>
        </mxCell>
        <mxCell id="yA4khDFc_51iNREQwirL-60" value="Розрахунок динаміки башти" style="rounded=1;whiteSpace=wrap;html=1;shadow=0;comic=0;labelBackgroundColor=none;strokeWidth=1;fontFamily=Verdana;fontSize=12;align=center;arcSize=50;" vertex="1" parent="1">
          <mxGeometry x="173.49999999999994" y="1190" width="100" height="40" as="geometry" />
        </mxCell>
        <mxCell id="yA4khDFc_51iNREQwirL-61" value="Так" style="text;html=1;strokeColor=none;fillColor=none;align=center;verticalAlign=middle;whiteSpace=wrap;rounded=0;" vertex="1" parent="1">
          <mxGeometry x="216.5" y="1155" width="40" height="20" as="geometry" />
        </mxCell>
        <mxCell id="yA4khDFc_51iNREQwirL-62" value="" style="ellipse;html=1;shape=endState;fillColor=#000000;strokeColor=#000000;" vertex="1" parent="1">
          <mxGeometry x="208.5" y="1280" width="30" height="30" as="geometry" />
        </mxCell>
        <mxCell id="yA4khDFc_51iNREQwirL-63" value="Ні" style="text;html=1;strokeColor=none;fillColor=none;align=center;verticalAlign=middle;whiteSpace=wrap;rounded=0;" vertex="1" parent="1">
          <mxGeometry x="137.5" y="1097" width="40" height="20" as="geometry" />
        </mxCell>
        <mxCell id="yA4khDFc_51iNREQwirL-64" style="edgeStyle=orthogonalEdgeStyle;rounded=0;orthogonalLoop=1;jettySize=auto;html=1;entryX=0.5;entryY=0;entryDx=0;entryDy=0;" edge="1" parent="1" source="yA4khDFc_51iNREQwirL-65" target="yA4khDFc_51iNREQwirL-71">
          <mxGeometry relative="1" as="geometry" />
        </mxCell>
        <mxCell id="yA4khDFc_51iNREQwirL-65" value="hf" style="ellipse;fillColor=#000000;strokeColor=none;" vertex="1" parent="1">
          <mxGeometry x="593.5" y="920" width="30" height="30" as="geometry" />
        </mxCell>
        <mxCell id="yA4khDFc_51iNREQwirL-66" value="Перегляд розрахунків" style="text;html=1;strokeColor=none;fillColor=none;align=center;verticalAlign=middle;whiteSpace=wrap;rounded=0;" vertex="1" parent="1">
          <mxGeometry x="549.75" y="890" width="117.5" height="20" as="geometry" />
        </mxCell>
        <mxCell id="yA4khDFc_51iNREQwirL-67" style="edgeStyle=orthogonalEdgeStyle;rounded=0;orthogonalLoop=1;jettySize=auto;html=1;entryX=0.5;entryY=0;entryDx=0;entryDy=0;" edge="1" parent="1" source="yA4khDFc_51iNREQwirL-68" target="yA4khDFc_51iNREQwirL-74">
          <mxGeometry relative="1" as="geometry" />
        </mxCell>
        <mxCell id="yA4khDFc_51iNREQwirL-68" value="Вхід у систему" style="rounded=1;whiteSpace=wrap;html=1;shadow=0;comic=0;labelBackgroundColor=none;strokeWidth=1;fontFamily=Verdana;fontSize=12;align=center;arcSize=50;" vertex="1" parent="1">
          <mxGeometry x="558.5" y="1110" width="100" height="40" as="geometry" />
        </mxCell>
        <mxCell id="yA4khDFc_51iNREQwirL-69" style="edgeStyle=orthogonalEdgeStyle;rounded=0;orthogonalLoop=1;jettySize=auto;html=1;entryX=0.5;entryY=0;entryDx=0;entryDy=0;" edge="1" parent="1" source="yA4khDFc_51iNREQwirL-71" target="yA4khDFc_51iNREQwirL-68">
          <mxGeometry relative="1" as="geometry" />
        </mxCell>
        <mxCell id="yA4khDFc_51iNREQwirL-70" style="edgeStyle=orthogonalEdgeStyle;rounded=0;orthogonalLoop=1;jettySize=auto;html=1;exitX=0;exitY=0.5;exitDx=0;exitDy=0;" edge="1" parent="1" source="yA4khDFc_51iNREQwirL-71">
          <mxGeometry relative="1" as="geometry">
            <mxPoint x="553.5" y="1025" as="sourcePoint" />
            <mxPoint x="608.5" y="1180" as="targetPoint" />
            <Array as="points">
              <mxPoint x="513.5" y="1025" />
              <mxPoint x="513.5" y="1180" />
            </Array>
          </mxGeometry>
        </mxCell>
        <mxCell id="yA4khDFc_51iNREQwirL-71" value="Вхід виконано?" style="rhombus;" vertex="1" parent="1">
          <mxGeometry x="556" y="990" width="105" height="70" as="geometry" />
        </mxCell>
        <mxCell id="yA4khDFc_51iNREQwirL-72" value="Ні" style="text;html=1;strokeColor=none;fillColor=none;align=center;verticalAlign=middle;whiteSpace=wrap;rounded=0;" vertex="1" parent="1">
          <mxGeometry x="601.5" y="1070" width="40" height="20" as="geometry" />
        </mxCell>
        <mxCell id="yA4khDFc_51iNREQwirL-73" style="edgeStyle=orthogonalEdgeStyle;rounded=0;orthogonalLoop=1;jettySize=auto;html=1;entryX=0.5;entryY=0;entryDx=0;entryDy=0;" edge="1" parent="1" source="yA4khDFc_51iNREQwirL-74" target="yA4khDFc_51iNREQwirL-78">
          <mxGeometry relative="1" as="geometry" />
        </mxCell>
        <mxCell id="yA4khDFc_51iNREQwirL-74" value="Виведення результатів" style="rounded=1;whiteSpace=wrap;html=1;shadow=0;comic=0;labelBackgroundColor=none;strokeWidth=1;fontFamily=Verdana;fontSize=12;align=center;arcSize=50;" vertex="1" parent="1">
          <mxGeometry x="558.5" y="1200" width="100" height="40" as="geometry" />
        </mxCell>
        <mxCell id="yA4khDFc_51iNREQwirL-75" value="Так" style="text;html=1;strokeColor=none;fillColor=none;align=center;verticalAlign=middle;whiteSpace=wrap;rounded=0;" vertex="1" parent="1">
          <mxGeometry x="517.5" y="1006" width="40" height="20" as="geometry" />
        </mxCell>
        <mxCell id="yA4khDFc_51iNREQwirL-76" style="edgeStyle=orthogonalEdgeStyle;rounded=0;orthogonalLoop=1;jettySize=auto;html=1;entryX=0.5;entryY=0;entryDx=0;entryDy=0;" edge="1" parent="1" source="yA4khDFc_51iNREQwirL-78" target="yA4khDFc_51iNREQwirL-81">
          <mxGeometry relative="1" as="geometry" />
        </mxCell>
        <mxCell id="yA4khDFc_51iNREQwirL-77" style="edgeStyle=orthogonalEdgeStyle;rounded=0;orthogonalLoop=1;jettySize=auto;html=1;" edge="1" parent="1" source="yA4khDFc_51iNREQwirL-78">
          <mxGeometry relative="1" as="geometry">
            <mxPoint x="608.5" y="1900" as="targetPoint" />
            <Array as="points">
              <mxPoint x="463.5" y="1335" />
              <mxPoint x="463.5" y="1900" />
            </Array>
          </mxGeometry>
        </mxCell>
        <mxCell id="yA4khDFc_51iNREQwirL-78" value="Зберегти&#xa;результати?" style="rhombus;" vertex="1" parent="1">
          <mxGeometry x="556" y="1300" width="105" height="70" as="geometry" />
        </mxCell>
        <mxCell id="yA4khDFc_51iNREQwirL-79" style="edgeStyle=orthogonalEdgeStyle;rounded=0;orthogonalLoop=1;jettySize=auto;html=1;entryX=0.5;entryY=0;entryDx=0;entryDy=0;" edge="1" parent="1" source="yA4khDFc_51iNREQwirL-81" target="yA4khDFc_51iNREQwirL-84">
          <mxGeometry relative="1" as="geometry">
            <Array as="points">
              <mxPoint x="593.5" y="1459" />
              <mxPoint x="533.5" y="1459" />
            </Array>
          </mxGeometry>
        </mxCell>
        <mxCell id="yA4khDFc_51iNREQwirL-80" style="edgeStyle=orthogonalEdgeStyle;rounded=0;orthogonalLoop=1;jettySize=auto;html=1;entryX=0.5;entryY=0;entryDx=0;entryDy=0;" edge="1" parent="1" source="yA4khDFc_51iNREQwirL-81" target="yA4khDFc_51iNREQwirL-86">
          <mxGeometry relative="1" as="geometry">
            <Array as="points">
              <mxPoint x="623.5" y="1459" />
              <mxPoint x="692.5" y="1459" />
            </Array>
          </mxGeometry>
        </mxCell>
        <mxCell id="yA4khDFc_51iNREQwirL-81" value="" style="whiteSpace=wrap;html=1;rounded=0;shadow=0;comic=0;labelBackgroundColor=none;strokeWidth=1;fillColor=#000000;fontFamily=Verdana;fontSize=12;align=center;rotation=0;" vertex="1" parent="1">
          <mxGeometry x="535" y="1420" width="147" height="7" as="geometry" />
        </mxCell>
        <mxCell id="yA4khDFc_51iNREQwirL-82" value="Так" style="text;html=1;strokeColor=none;fillColor=none;align=center;verticalAlign=middle;whiteSpace=wrap;rounded=0;" vertex="1" parent="1">
          <mxGeometry x="605.5" y="1380" width="40" height="20" as="geometry" />
        </mxCell>
        <mxCell id="yA4khDFc_51iNREQwirL-83" style="edgeStyle=orthogonalEdgeStyle;rounded=0;orthogonalLoop=1;jettySize=auto;html=1;entryX=0.25;entryY=0;entryDx=0;entryDy=0;" edge="1" parent="1" source="yA4khDFc_51iNREQwirL-84" target="yA4khDFc_51iNREQwirL-88">
          <mxGeometry relative="1" as="geometry" />
        </mxCell>
        <mxCell id="yA4khDFc_51iNREQwirL-84" value="Вибір формату збереження даних" style="rounded=1;whiteSpace=wrap;html=1;shadow=0;comic=0;labelBackgroundColor=none;strokeWidth=1;fontFamily=Verdana;fontSize=12;align=center;arcSize=50;" vertex="1" parent="1">
          <mxGeometry x="473.5" y="1490" width="120" height="50" as="geometry" />
        </mxCell>
        <mxCell id="yA4khDFc_51iNREQwirL-85" style="edgeStyle=orthogonalEdgeStyle;rounded=0;orthogonalLoop=1;jettySize=auto;html=1;entryX=0.75;entryY=0;entryDx=0;entryDy=0;" edge="1" parent="1" source="yA4khDFc_51iNREQwirL-86" target="yA4khDFc_51iNREQwirL-88">
          <mxGeometry relative="1" as="geometry" />
        </mxCell>
        <mxCell id="yA4khDFc_51iNREQwirL-86" value="Вибір місця (носія) збереження даних" style="rounded=1;whiteSpace=wrap;html=1;shadow=0;comic=0;labelBackgroundColor=none;strokeWidth=1;fontFamily=Verdana;fontSize=12;align=center;arcSize=50;" vertex="1" parent="1">
          <mxGeometry x="632" y="1490" width="121.5" height="50" as="geometry" />
        </mxCell>
        <mxCell id="yA4khDFc_51iNREQwirL-87" style="edgeStyle=orthogonalEdgeStyle;rounded=0;orthogonalLoop=1;jettySize=auto;html=1;entryX=0.5;entryY=0;entryDx=0;entryDy=0;" edge="1" parent="1" source="yA4khDFc_51iNREQwirL-88" target="yA4khDFc_51iNREQwirL-91">
          <mxGeometry relative="1" as="geometry" />
        </mxCell>
        <mxCell id="yA4khDFc_51iNREQwirL-88" value="" style="whiteSpace=wrap;html=1;rounded=0;shadow=0;comic=0;labelBackgroundColor=none;strokeWidth=1;fillColor=#000000;fontFamily=Verdana;fontSize=12;align=center;rotation=0;" vertex="1" parent="1">
          <mxGeometry x="535" y="1610" width="147" height="7" as="geometry" />
        </mxCell>
        <mxCell id="yA4khDFc_51iNREQwirL-89" style="edgeStyle=orthogonalEdgeStyle;rounded=0;orthogonalLoop=1;jettySize=auto;html=1;" edge="1" parent="1" source="yA4khDFc_51iNREQwirL-91">
          <mxGeometry relative="1" as="geometry">
            <mxPoint x="608.5" y="1270" as="targetPoint" />
            <Array as="points">
              <mxPoint x="783.5" y="1715" />
              <mxPoint x="783.5" y="1270" />
            </Array>
          </mxGeometry>
        </mxCell>
        <mxCell id="yA4khDFc_51iNREQwirL-90" style="edgeStyle=orthogonalEdgeStyle;rounded=0;orthogonalLoop=1;jettySize=auto;html=1;entryX=0.5;entryY=0;entryDx=0;entryDy=0;" edge="1" parent="1" source="yA4khDFc_51iNREQwirL-91" target="yA4khDFc_51iNREQwirL-93">
          <mxGeometry relative="1" as="geometry" />
        </mxCell>
        <mxCell id="yA4khDFc_51iNREQwirL-91" value="Збереження&#xa;пройшло успішно?" style="rhombus;" vertex="1" parent="1">
          <mxGeometry x="539.75" y="1670" width="137.5" height="90" as="geometry" />
        </mxCell>
        <mxCell id="yA4khDFc_51iNREQwirL-92" style="edgeStyle=orthogonalEdgeStyle;rounded=0;orthogonalLoop=1;jettySize=auto;html=1;entryX=0.5;entryY=0;entryDx=0;entryDy=0;" edge="1" parent="1" source="yA4khDFc_51iNREQwirL-93" target="yA4khDFc_51iNREQwirL-94">
          <mxGeometry relative="1" as="geometry" />
        </mxCell>
        <mxCell id="yA4khDFc_51iNREQwirL-93" value="Сповіщення про успішне збереження даних" style="rounded=1;whiteSpace=wrap;html=1;shadow=0;comic=0;labelBackgroundColor=none;strokeWidth=1;fontFamily=Verdana;fontSize=12;align=center;arcSize=50;" vertex="1" parent="1">
          <mxGeometry x="541" y="1800" width="135" height="60" as="geometry" />
        </mxCell>
        <mxCell id="yA4khDFc_51iNREQwirL-94" value="" style="ellipse;html=1;shape=endState;fillColor=#000000;strokeColor=#000000;" vertex="1" parent="1">
          <mxGeometry x="593.5" y="1925" width="30" height="30" as="geometry" />
        </mxCell>
        <mxCell id="yA4khDFc_51iNREQwirL-95" value="Так" style="text;html=1;strokeColor=none;fillColor=none;align=center;verticalAlign=middle;whiteSpace=wrap;rounded=0;" vertex="1" parent="1">
          <mxGeometry x="604.5" y="1767" width="40" height="20" as="geometry" />
        </mxCell>
        <mxCell id="yA4khDFc_51iNREQwirL-96" value="Ні" style="text;html=1;strokeColor=none;fillColor=none;align=center;verticalAlign=middle;whiteSpace=wrap;rounded=0;" vertex="1" parent="1">
          <mxGeometry x="708.5" y="1692" width="40" height="20" as="geometry" />
        </mxCell>
        <mxCell id="yA4khDFc_51iNREQwirL-97" value="Ні" style="text;html=1;strokeColor=none;fillColor=none;align=center;verticalAlign=middle;whiteSpace=wrap;rounded=0;" vertex="1" parent="1">
          <mxGeometry x="501.5" y="1313" width="40" height="20" as="geometry" />
        </mxCell>
        <mxCell id="yA4khDFc_51iNREQwirL-98" style="edgeStyle=orthogonalEdgeStyle;rounded=0;orthogonalLoop=1;jettySize=auto;html=1;entryX=0.5;entryY=0;entryDx=0;entryDy=0;" edge="1" parent="1" source="yA4khDFc_51iNREQwirL-99" target="yA4khDFc_51iNREQwirL-104">
          <mxGeometry relative="1" as="geometry" />
        </mxCell>
        <mxCell id="yA4khDFc_51iNREQwirL-99" value="hf" style="ellipse;fillColor=#000000;strokeColor=none;" vertex="1" parent="1">
          <mxGeometry x="393.5" y="2000" width="30" height="30" as="geometry" />
        </mxCell>
        <mxCell id="yA4khDFc_51iNREQwirL-100" value="Розрахунок динаміки башти" style="text;html=1;strokeColor=none;fillColor=none;align=center;verticalAlign=middle;whiteSpace=wrap;rounded=0;" vertex="1" parent="1">
          <mxGeometry x="349.75" y="1970" width="117.5" height="20" as="geometry" />
        </mxCell>
        <mxCell id="yA4khDFc_51iNREQwirL-122" style="edgeStyle=orthogonalEdgeStyle;rounded=0;orthogonalLoop=1;jettySize=auto;html=1;entryX=0.5;entryY=0;entryDx=0;entryDy=0;" edge="1" parent="1" source="yA4khDFc_51iNREQwirL-101" target="yA4khDFc_51iNREQwirL-121">
          <mxGeometry relative="1" as="geometry" />
        </mxCell>
        <mxCell id="yA4khDFc_51iNREQwirL-101" value="Аналіз руху башти" style="rounded=1;whiteSpace=wrap;html=1;shadow=0;comic=0;labelBackgroundColor=none;strokeWidth=1;fontFamily=Verdana;fontSize=12;align=center;arcSize=50;" vertex="1" parent="1">
          <mxGeometry x="185.5" y="2160" width="100" height="40" as="geometry" />
        </mxCell>
        <mxCell id="yA4khDFc_51iNREQwirL-102" style="edgeStyle=orthogonalEdgeStyle;rounded=0;orthogonalLoop=1;jettySize=auto;html=1;entryX=0.5;entryY=0;entryDx=0;entryDy=0;" edge="1" parent="1" source="yA4khDFc_51iNREQwirL-104" target="yA4khDFc_51iNREQwirL-101">
          <mxGeometry relative="1" as="geometry">
            <Array as="points">
              <mxPoint x="373.5" y="2120" />
              <mxPoint x="235.5" y="2120" />
            </Array>
          </mxGeometry>
        </mxCell>
        <mxCell id="yA4khDFc_51iNREQwirL-103" style="edgeStyle=orthogonalEdgeStyle;rounded=0;orthogonalLoop=1;jettySize=auto;html=1;" edge="1" parent="1" source="yA4khDFc_51iNREQwirL-104" target="yA4khDFc_51iNREQwirL-105">
          <mxGeometry relative="1" as="geometry">
            <Array as="points">
              <mxPoint x="443.5" y="2120" />
              <mxPoint x="572.5" y="2120" />
            </Array>
          </mxGeometry>
        </mxCell>
        <mxCell id="yA4khDFc_51iNREQwirL-104" value="" style="whiteSpace=wrap;html=1;rounded=0;shadow=0;comic=0;labelBackgroundColor=none;strokeWidth=1;fillColor=#000000;fontFamily=Verdana;fontSize=12;align=center;rotation=0;" vertex="1" parent="1">
          <mxGeometry x="335" y="2080" width="147" height="7" as="geometry" />
        </mxCell>
        <mxCell id="yA4khDFc_51iNREQwirL-107" style="edgeStyle=orthogonalEdgeStyle;rounded=0;orthogonalLoop=1;jettySize=auto;html=1;entryX=0.5;entryY=0;entryDx=0;entryDy=0;" edge="1" parent="1" source="yA4khDFc_51iNREQwirL-105" target="yA4khDFc_51iNREQwirL-106">
          <mxGeometry relative="1" as="geometry" />
        </mxCell>
        <mxCell id="yA4khDFc_51iNREQwirL-105" value="Аналіз руху лопатей" style="rounded=1;whiteSpace=wrap;html=1;shadow=0;comic=0;labelBackgroundColor=none;strokeWidth=1;fontFamily=Verdana;fontSize=12;align=center;arcSize=50;" vertex="1" parent="1">
          <mxGeometry x="522.5" y="2160" width="100" height="40" as="geometry" />
        </mxCell>
        <mxCell id="yA4khDFc_51iNREQwirL-110" style="edgeStyle=orthogonalEdgeStyle;rounded=0;orthogonalLoop=1;jettySize=auto;html=1;entryX=0.5;entryY=0;entryDx=0;entryDy=0;" edge="1" parent="1" source="yA4khDFc_51iNREQwirL-106" target="yA4khDFc_51iNREQwirL-108">
          <mxGeometry relative="1" as="geometry">
            <mxPoint x="572.5" y="2368" as="targetPoint" />
          </mxGeometry>
        </mxCell>
        <mxCell id="yA4khDFc_51iNREQwirL-106" value="Вимірювання частоти обертання лопатей" style="rounded=1;whiteSpace=wrap;html=1;shadow=0;comic=0;labelBackgroundColor=none;strokeWidth=1;fontFamily=Verdana;fontSize=12;align=center;arcSize=50;" vertex="1" parent="1">
          <mxGeometry x="514.5" y="2250" width="116" height="60" as="geometry" />
        </mxCell>
        <mxCell id="yA4khDFc_51iNREQwirL-113" style="edgeStyle=orthogonalEdgeStyle;rounded=0;orthogonalLoop=1;jettySize=auto;html=1;entryX=0.5;entryY=0;entryDx=0;entryDy=0;exitX=0;exitY=0.5;exitDx=0;exitDy=0;" edge="1" parent="1" source="yA4khDFc_51iNREQwirL-108" target="yA4khDFc_51iNREQwirL-112">
          <mxGeometry relative="1" as="geometry">
            <Array as="points">
              <mxPoint x="452.5" y="2415" />
            </Array>
          </mxGeometry>
        </mxCell>
        <mxCell id="yA4khDFc_51iNREQwirL-115" style="edgeStyle=orthogonalEdgeStyle;rounded=0;orthogonalLoop=1;jettySize=auto;html=1;entryX=0.5;entryY=0;entryDx=0;entryDy=0;exitX=1;exitY=0.5;exitDx=0;exitDy=0;" edge="1" parent="1" source="yA4khDFc_51iNREQwirL-108" target="yA4khDFc_51iNREQwirL-114">
          <mxGeometry relative="1" as="geometry">
            <Array as="points">
              <mxPoint x="696.5" y="2415" />
              <mxPoint x="696.5" y="2500" />
            </Array>
          </mxGeometry>
        </mxCell>
        <mxCell id="yA4khDFc_51iNREQwirL-108" value="Визначення впливу руху &#xa;лопатей на динаміку &#xa;башти" style="rhombus;" vertex="1" parent="1">
          <mxGeometry x="464.25" y="2370" width="216.5" height="90" as="geometry" />
        </mxCell>
        <mxCell id="yA4khDFc_51iNREQwirL-120" style="edgeStyle=orthogonalEdgeStyle;rounded=0;orthogonalLoop=1;jettySize=auto;html=1;entryX=0;entryY=0.5;entryDx=0;entryDy=0;exitX=0.5;exitY=1;exitDx=0;exitDy=0;" edge="1" parent="1" source="yA4khDFc_51iNREQwirL-112" target="yA4khDFc_51iNREQwirL-118">
          <mxGeometry relative="1" as="geometry" />
        </mxCell>
        <mxCell id="yA4khDFc_51iNREQwirL-112" value="Враховування руху лопатей при вимірі динаміки руху башти" style="rounded=1;whiteSpace=wrap;html=1;shadow=0;comic=0;labelBackgroundColor=none;strokeWidth=1;fontFamily=Verdana;fontSize=12;align=center;arcSize=50;" vertex="1" parent="1">
          <mxGeometry x="393.5" y="2490" width="116.25" height="60" as="geometry" />
        </mxCell>
        <mxCell id="yA4khDFc_51iNREQwirL-119" style="edgeStyle=orthogonalEdgeStyle;rounded=0;orthogonalLoop=1;jettySize=auto;html=1;entryX=1;entryY=0.5;entryDx=0;entryDy=0;exitX=0.5;exitY=1;exitDx=0;exitDy=0;" edge="1" parent="1" source="yA4khDFc_51iNREQwirL-114" target="yA4khDFc_51iNREQwirL-118">
          <mxGeometry relative="1" as="geometry" />
        </mxCell>
        <mxCell id="yA4khDFc_51iNREQwirL-114" value="Ігнорування руху лопатей при вимірі динаміки руху башти" style="rounded=1;whiteSpace=wrap;html=1;shadow=0;comic=0;labelBackgroundColor=none;strokeWidth=1;fontFamily=Verdana;fontSize=12;align=center;arcSize=50;" vertex="1" parent="1">
          <mxGeometry x="630.5" y="2490" width="132.5" height="60" as="geometry" />
        </mxCell>
        <mxCell id="yA4khDFc_51iNREQwirL-116" value="Вплив значний" style="text;html=1;strokeColor=none;fillColor=none;align=center;verticalAlign=middle;whiteSpace=wrap;rounded=0;" vertex="1" parent="1">
          <mxGeometry x="398.5" y="2450" width="117.5" height="20" as="geometry" />
        </mxCell>
        <mxCell id="yA4khDFc_51iNREQwirL-117" value="Вплив незначний" style="text;html=1;strokeColor=none;fillColor=none;align=center;verticalAlign=middle;whiteSpace=wrap;rounded=0;" vertex="1" parent="1">
          <mxGeometry x="649.75" y="2450" width="117.5" height="20" as="geometry" />
        </mxCell>
        <mxCell id="yA4khDFc_51iNREQwirL-131" style="edgeStyle=orthogonalEdgeStyle;rounded=0;orthogonalLoop=1;jettySize=auto;html=1;entryX=0.75;entryY=0;entryDx=0;entryDy=0;" edge="1" parent="1" source="yA4khDFc_51iNREQwirL-118" target="yA4khDFc_51iNREQwirL-130">
          <mxGeometry relative="1" as="geometry">
            <Array as="points">
              <mxPoint x="572.5" y="2670" />
              <mxPoint x="463.5" y="2670" />
            </Array>
          </mxGeometry>
        </mxCell>
        <mxCell id="yA4khDFc_51iNREQwirL-118" value="" style="rhombus;" vertex="1" parent="1">
          <mxGeometry x="527" y="2580" width="91" height="50" as="geometry" />
        </mxCell>
        <mxCell id="yA4khDFc_51iNREQwirL-125" style="edgeStyle=orthogonalEdgeStyle;rounded=0;orthogonalLoop=1;jettySize=auto;html=1;entryX=0.5;entryY=0;entryDx=0;entryDy=0;" edge="1" parent="1" source="yA4khDFc_51iNREQwirL-121" target="yA4khDFc_51iNREQwirL-123">
          <mxGeometry relative="1" as="geometry">
            <Array as="points">
              <mxPoint x="213.5" y="2289" />
              <mxPoint x="128.5" y="2289" />
            </Array>
          </mxGeometry>
        </mxCell>
        <mxCell id="yA4khDFc_51iNREQwirL-126" style="edgeStyle=orthogonalEdgeStyle;rounded=0;orthogonalLoop=1;jettySize=auto;html=1;entryX=0.5;entryY=0;entryDx=0;entryDy=0;" edge="1" parent="1" source="yA4khDFc_51iNREQwirL-121" target="yA4khDFc_51iNREQwirL-124">
          <mxGeometry relative="1" as="geometry">
            <Array as="points">
              <mxPoint x="253.5" y="2289" />
              <mxPoint x="340.5" y="2289" />
            </Array>
          </mxGeometry>
        </mxCell>
        <mxCell id="yA4khDFc_51iNREQwirL-121" value="" style="whiteSpace=wrap;html=1;rounded=0;shadow=0;comic=0;labelBackgroundColor=none;strokeWidth=1;fillColor=#000000;fontFamily=Verdana;fontSize=12;align=center;rotation=0;" vertex="1" parent="1">
          <mxGeometry x="162" y="2250" width="147" height="7" as="geometry" />
        </mxCell>
        <mxCell id="yA4khDFc_51iNREQwirL-129" style="edgeStyle=orthogonalEdgeStyle;rounded=0;orthogonalLoop=1;jettySize=auto;html=1;entryX=0.25;entryY=0;entryDx=0;entryDy=0;" edge="1" parent="1" source="yA4khDFc_51iNREQwirL-123" target="yA4khDFc_51iNREQwirL-127">
          <mxGeometry relative="1" as="geometry" />
        </mxCell>
        <mxCell id="yA4khDFc_51iNREQwirL-123" value="Вимірювання частоти коливання башти" style="rounded=1;whiteSpace=wrap;html=1;shadow=0;comic=0;labelBackgroundColor=none;strokeWidth=1;fontFamily=Verdana;fontSize=12;align=center;arcSize=50;" vertex="1" parent="1">
          <mxGeometry x="63.5" y="2320" width="130" height="50" as="geometry" />
        </mxCell>
        <mxCell id="yA4khDFc_51iNREQwirL-128" style="edgeStyle=orthogonalEdgeStyle;rounded=0;orthogonalLoop=1;jettySize=auto;html=1;entryX=0.75;entryY=0;entryDx=0;entryDy=0;" edge="1" parent="1" source="yA4khDFc_51iNREQwirL-124" target="yA4khDFc_51iNREQwirL-127">
          <mxGeometry relative="1" as="geometry" />
        </mxCell>
        <mxCell id="yA4khDFc_51iNREQwirL-124" value="Вимірювання амплітуди коливання башти" style="rounded=1;whiteSpace=wrap;html=1;shadow=0;comic=0;labelBackgroundColor=none;strokeWidth=1;fontFamily=Verdana;fontSize=12;align=center;arcSize=50;" vertex="1" parent="1">
          <mxGeometry x="273.5" y="2320" width="133" height="50" as="geometry" />
        </mxCell>
        <mxCell id="yA4khDFc_51iNREQwirL-132" style="edgeStyle=orthogonalEdgeStyle;rounded=0;orthogonalLoop=1;jettySize=auto;html=1;entryX=0.25;entryY=0;entryDx=0;entryDy=0;" edge="1" parent="1" source="yA4khDFc_51iNREQwirL-127" target="yA4khDFc_51iNREQwirL-130">
          <mxGeometry relative="1" as="geometry">
            <Array as="points">
              <mxPoint x="236.5" y="2670" />
              <mxPoint x="390.5" y="2670" />
            </Array>
          </mxGeometry>
        </mxCell>
        <mxCell id="yA4khDFc_51iNREQwirL-127" value="" style="whiteSpace=wrap;html=1;rounded=0;shadow=0;comic=0;labelBackgroundColor=none;strokeWidth=1;fillColor=#000000;fontFamily=Verdana;fontSize=12;align=center;rotation=0;" vertex="1" parent="1">
          <mxGeometry x="163" y="2438" width="147" height="7" as="geometry" />
        </mxCell>
        <mxCell id="yA4khDFc_51iNREQwirL-134" style="edgeStyle=orthogonalEdgeStyle;rounded=0;orthogonalLoop=1;jettySize=auto;html=1;entryX=0.5;entryY=0;entryDx=0;entryDy=0;" edge="1" parent="1" source="yA4khDFc_51iNREQwirL-130" target="yA4khDFc_51iNREQwirL-133">
          <mxGeometry relative="1" as="geometry" />
        </mxCell>
        <mxCell id="yA4khDFc_51iNREQwirL-130" value="" style="whiteSpace=wrap;html=1;rounded=0;shadow=0;comic=0;labelBackgroundColor=none;strokeWidth=1;fillColor=#000000;fontFamily=Verdana;fontSize=12;align=center;rotation=0;" vertex="1" parent="1">
          <mxGeometry x="353.5" y="2710" width="147" height="7" as="geometry" />
        </mxCell>
        <mxCell id="yA4khDFc_51iNREQwirL-136" style="edgeStyle=orthogonalEdgeStyle;rounded=0;orthogonalLoop=1;jettySize=auto;html=1;entryX=0.5;entryY=0;entryDx=0;entryDy=0;" edge="1" parent="1" source="yA4khDFc_51iNREQwirL-133" target="yA4khDFc_51iNREQwirL-135">
          <mxGeometry relative="1" as="geometry" />
        </mxCell>
        <mxCell id="yA4khDFc_51iNREQwirL-133" value="Складання диференціального рівняння динаміки башти" style="rounded=1;whiteSpace=wrap;html=1;shadow=0;comic=0;labelBackgroundColor=none;strokeWidth=1;fontFamily=Verdana;fontSize=12;align=center;arcSize=50;" vertex="1" parent="1">
          <mxGeometry x="364.63" y="2790" width="124.75" height="60" as="geometry" />
        </mxCell>
        <mxCell id="yA4khDFc_51iNREQwirL-138" style="edgeStyle=orthogonalEdgeStyle;rounded=0;orthogonalLoop=1;jettySize=auto;html=1;entryX=0.5;entryY=0;entryDx=0;entryDy=0;" edge="1" parent="1" source="yA4khDFc_51iNREQwirL-135" target="yA4khDFc_51iNREQwirL-137">
          <mxGeometry relative="1" as="geometry" />
        </mxCell>
        <mxCell id="yA4khDFc_51iNREQwirL-135" value="Розв&#39;язання диференціального рівняння динаміки башти" style="rounded=1;whiteSpace=wrap;html=1;shadow=0;comic=0;labelBackgroundColor=none;strokeWidth=1;fontFamily=Verdana;fontSize=12;align=center;arcSize=50;" vertex="1" parent="1">
          <mxGeometry x="364.63" y="2900" width="124.75" height="60" as="geometry" />
        </mxCell>
        <mxCell id="yA4khDFc_51iNREQwirL-140" style="edgeStyle=orthogonalEdgeStyle;rounded=0;orthogonalLoop=1;jettySize=auto;html=1;entryX=0.5;entryY=0;entryDx=0;entryDy=0;" edge="1" parent="1" source="yA4khDFc_51iNREQwirL-137" target="yA4khDFc_51iNREQwirL-139">
          <mxGeometry relative="1" as="geometry" />
        </mxCell>
        <mxCell id="yA4khDFc_51iNREQwirL-137" value="Формування результатів" style="rounded=1;whiteSpace=wrap;html=1;shadow=0;comic=0;labelBackgroundColor=none;strokeWidth=1;fontFamily=Verdana;fontSize=12;align=center;arcSize=50;" vertex="1" parent="1">
          <mxGeometry x="364.63" y="3010" width="124.75" height="60" as="geometry" />
        </mxCell>
        <mxCell id="yA4khDFc_51iNREQwirL-142" style="edgeStyle=orthogonalEdgeStyle;rounded=0;orthogonalLoop=1;jettySize=auto;html=1;entryX=0.5;entryY=0;entryDx=0;entryDy=0;" edge="1" parent="1" source="yA4khDFc_51iNREQwirL-139" target="yA4khDFc_51iNREQwirL-141">
          <mxGeometry relative="1" as="geometry" />
        </mxCell>
        <mxCell id="yA4khDFc_51iNREQwirL-139" value="Занесення результатів у пам&#39;ять" style="rounded=1;whiteSpace=wrap;html=1;shadow=0;comic=0;labelBackgroundColor=none;strokeWidth=1;fontFamily=Verdana;fontSize=12;align=center;arcSize=50;" vertex="1" parent="1">
          <mxGeometry x="364.63" y="3120" width="124.75" height="60" as="geometry" />
        </mxCell>
        <mxCell id="yA4khDFc_51iNREQwirL-141" value="" style="ellipse;html=1;shape=endState;fillColor=#000000;strokeColor=#000000;" vertex="1" parent="1">
          <mxGeometry x="412.01" y="3230" width="30" height="30" as="geometry" />
        </mxCell>
        <mxCell id="yA4khDFc_51iNREQwirL-145" style="edgeStyle=orthogonalEdgeStyle;rounded=0;orthogonalLoop=1;jettySize=auto;html=1;entryX=0.5;entryY=0;entryDx=0;entryDy=0;" edge="1" parent="1" source="yA4khDFc_51iNREQwirL-143" target="yA4khDFc_51iNREQwirL-23">
          <mxGeometry relative="1" as="geometry" />
        </mxCell>
        <mxCell id="yA4khDFc_51iNREQwirL-143" value="Перевірка введених даних" style="rounded=1;whiteSpace=wrap;html=1;shadow=0;comic=0;labelBackgroundColor=none;strokeWidth=1;fontFamily=Verdana;fontSize=12;align=center;arcSize=50;" vertex="1" parent="1">
          <mxGeometry x="204.99999999999994" y="520" width="100" height="40" as="geometry" />
        </mxCell>
        <mxCell id="yA4khDFc_51iNREQwirL-148" style="edgeStyle=orthogonalEdgeStyle;rounded=0;orthogonalLoop=1;jettySize=auto;html=1;entryX=0.5;entryY=0;entryDx=0;entryDy=0;" edge="1" parent="1" source="yA4khDFc_51iNREQwirL-146" target="yA4khDFc_51iNREQwirL-44">
          <mxGeometry relative="1" as="geometry" />
        </mxCell>
        <mxCell id="yA4khDFc_51iNREQwirL-146" value="Перевірка введених даних" style="rounded=1;whiteSpace=wrap;html=1;shadow=0;comic=0;labelBackgroundColor=none;strokeWidth=1;fontFamily=Verdana;fontSize=12;align=center;arcSize=50;" vertex="1" parent="1">
          <mxGeometry x="605" y="500" width="100" height="40" as="geometry" />
        </mxCell>
      </root>
    </mxGraphModel>
  </diagram>
</mxfile>
